# xmcd
#
# Track frame offsets:
#	150
#	14242
#	34010
#	66510
#	106477
#	145656
#	170792
#	187807
#	216393
#	259252
#	277903
#	322883
#
# Disc length: 4516 seconds
#
# Revision: 1
# Processed by: cddbd v1.5.2PL0 Copyright (c) Steve Scherf et al.
# Submitted via: audiograbber 1.83.01
#
DISCID=b611a20c
DTITLE=Grateful Dead - 73-03-21 Utica Memorial Auditorium, Utica NY
DYEAR=1900
DGENRE=
TTITLE0=Bertha
TTITLE1=Me and My Uncle
TTITLE2=Wave That Flag
TTITLE3=Looks Like Rain
TTITLE4=Tennessee Jed
TTITLE5=Box Of Rain
TTITLE6=You Ain't Woman Enough
TTITLE7=Jack Straw
TTITLE8=Row Jimmy
TTITLE9=BIODTL
TTITLE10=Here Comes Sunshine
TTITLE11=The Race Is On
EXTD=
EXTT0=
EXTT1=
EXTT2=
EXTT3=
EXTT4=
EXTT5=
EXTT6=
EXTT7=
EXTT8=
EXTT9=
EXTT10=
EXTT11=
PLAYORDER=
